1e0eab5c5cb6ee0a77ff9c4611a3044b *tests/data/fate/atrac-matroska-remux.matroska
450932 tests/data/fate/atrac-matroska-remux.matroska
#tb 0: 1/1000
#media_type 0: audio
#codec_id 0: atrac1
#sample_rate 0: 44100
#channel_layout_name 0: stereo
0,          0,          0,       11,      424, 0x3b6509a4
0,         12,         12,       11,      424, 0x3b6509a4
0,         23,         23,       11,      424, 0x3b6509a4
0,         35,         35,       11,      424, 0x3b6509a4
0,         46,         46,       11,      424, 0x3b6509a4
0,         58,         58,       11,      424, 0x3b6509a4
0,         70,         70,       11,      424, 0x3b6509a4
0,         81,         81,       11,      424, 0x3b6509a4
0,         93,         93,       11,      424, 0x3b6509a4
0,        104,        104,       11,      424, 0x3b6509a4
0,        116,        116,       11,      424, 0x3b6509a4
0,        128,        128,       11,      424, 0x3b6509a4
0,        139,        139,       11,      424, 0x3b6509a4
0,        151,        151,       11,      424, 0x3b6509a4
0,        163,        163,       11,      424, 0x3b6509a4
0,        174,        174,       11,      424, 0x3b6509a4
0,        186,        186,       11,      424, 0x3b6509a4
0,        197,        197,       11,      424, 0x3b6509a4
0,        209,        209,       11,      424, 0x3b6509a4
0,        221,        221,       11,      424, 0x3b6509a4
0,        232,        232,       11,      424, 0x3b6509a4
0,        244,        244,       11,      424, 0x3b6509a4
0,        255,        255,       11,      424, 0x3b6509a4
0,        267,        267,       11,      424, 0x3b6509a4
0,        279,        279,       11,      424, 0x3b6509a4
0,        290,        290,       11,      424, 0x3b6509a4
0,        302,        302,       11,      424, 0x3b6509a4
0,        313,        313,       11,      424, 0x3b6509a4
0,        325,        325,       11,      424, 0x3b6509a4
0,        337,        337,       11,      424, 0x3b6509a4
0,        348,        348,       11,      424, 0x3b6509a4
0,        360,        360,       11,      424, 0x3b6509a4
0,        372,        372,       11,      424, 0x3b6509a4
0,        383,        383,       11,      424, 0x3b6509a4
0,        395,        395,       11,      424, 0x3b6509a4
0,        406,        406,       11,      424, 0x3b6509a4
0,        418,        418,       11,      424, 0x3b6509a4
0,        430,        430,       11,      424, 0x3b6509a4
0,        441,        441,       11,      424, 0x3b6509a4
0,        453,        453,       11,      424, 0x3b6509a4
0,        464,        464,       11,      424, 0x3b6509a4
0,        476,        476,       11,      424, 0x3b6509a4
0,        488,        488,       11,      424, 0x3b6509a4
0,        499,        499,       11,      424, 0x3b6509a4
0,        511,        511,       11,      424, 0x3b6509a4
0,        522,        522,       11,      424, 0x3b6509a4
0,        534,        534,       11,      424, 0x3b6509a4
0,        546,        546,       11,      424, 0x3b6509a4
0,        557,        557,       11,      424, 0x3b6509a4
0,        569,        569,       11,      424, 0x3b6509a4
0,        580,        580,       11,      424, 0x3b6509a4
0,        592,        592,       11,      424, 0x3b6509a4
0,        604,        604,       11,      424, 0x3b6509a4
0,        615,        615,       11,      424, 0x3b6509a4
0,        627,        627,       11,      424, 0x3b6509a4
0,        639,        639,       11,      424, 0x3b6509a4
0,        650,        650,       11,      424, 0x3b6509a4
0,        662,        662,       11,      424, 0x3b6509a4
0,        673,        673,       11,      424, 0x3b6509a4
0,        685,        685,       11,      424, 0x3b6509a4
0,        697,        697,       11,      424, 0x3b6509a4
0,        708,        708,       11,      424, 0x9699a148
0,        720,        720,       11,      424, 0x4b15b57e
0,        731,        731,       11,      424, 0x690fbe86
0,        743,        743,       11,      424, 0x8980bea4
0,        755,        755,       11,      424, 0xc792c244
0,        766,        766,       11,      424, 0x57e1bac4
0,        778,        778,       11,      424, 0xe813bebe
0,        789,        789,       11,      424, 0x022cbf4e
0,        801,        801,       11,      424, 0x36e1bdce
0,        813,        813,       11,      424, 0x243dbdf4
0,        824,        824,       11,      424, 0x8eeebba8
0,        836,        836,       11,      424, 0x8088bbac
0,        848,        848,       11,      424, 0xf75fbc8c
0,        859,        859,       11,      424, 0x9678c284
0,        871,        871,       11,      424, 0x45edbc50
0,        882,        882,       11,      424, 0xe9ffbe1e
0,        894,        894,       11,      424, 0x694bbdf0
0,        906,        906,       11,      424, 0x3f1ab970
0,        917,        917,       11,      424, 0x6114bbbe
0,        929,        929,       11,      424, 0xf67cc210
0,        940,        940,       11,      424, 0x9d9cbf4c
0,        952,        952,       11,      424, 0x72ecbe4e
0,        964,        964,       11,      424, 0x1bb4be96
0,        975,        975,       11,      424, 0x467cbc1c
0,        987,        987,       11,      424, 0x1b2abc80
0,        998,        998,       11,      424, 0xd0e3befc
